<svg width="325" height="464" viewBox="0 0 325 464" fill="none" xmlns="http://www.w3.org/2000/svg">
<path d="M162.667 246.893C116.224 246.893 78.4426 209.112 78.4426 162.669C78.4426 116.227 116.224 78.5187 162.667 78.5187C209.109 78.5187 246.891 116.3 246.891 162.743C246.891 209.185 209.109 246.893 162.667 246.893ZM162.667 93.4533C124.437 93.4533 93.3746 124.516 93.3746 162.745C93.3746 200.975 124.437 232.037 162.667 232.037C200.896 232.037 231.959 200.975 231.959 162.745C231.959 124.516 200.896 93.4533 162.667 93.4533Z" fill="black"/>
<path d="M162.667 463.8C153.781 463.8 145.568 459.394 140.713 452.003C98.6773 388.31 0.859985 232.55 0.859985 162.736C0.859985 73.4337 73.4333 0.8564 162.66 0.8564C251.887 0.8564 324.46 73.4351 324.46 162.656C324.46 232.468 226.648 388.23 184.607 451.923C179.753 459.392 171.539 463.798 162.653 463.798L162.667 463.8ZM162.667 15.8C81.6506 15.8 15.8 81.6547 15.8 162.667C15.8 230.312 120.931 394.88 153.187 443.72C157.515 450.215 167.895 450.215 172.228 443.72C204.411 394.887 309.535 230.32 309.535 162.667C309.535 81.6507 243.68 15.8 162.668 15.8H162.667Z" fill="black"/>
</svg>
