<svg width="277" height="28" viewBox="0 0 277 28" fill="none" xmlns="http://www.w3.org/2000/svg">
<path d="M0.171123 27.612L4.64802 0.645235H24.083L23.0823 6.54421H10.9684L10.231 11.1791H21.3442L20.3435 17.0781H9.23026L8.49289 21.713H20.5542L19.5535 27.612H0.171123ZM35.2457 0.645235L38.3531 8.49298H38.5638L44.3575 0.645235H52.8372L42.5667 14.1286L48.6764 27.612H40.5126L37.2471 19.6062H37.0364L31.1374 27.612H22.605L33.1389 14.1286L27.3452 0.645235H35.2457ZM58.5222 27.612H50.6218L63.9999 0.645235H74.007L78.4313 27.612H70.5309L67.8974 8.07162H67.6867L58.5222 27.612ZM58.8383 16.9728H73.691L72.743 22.4504H57.8902L58.8383 16.9728ZM85.5054 0.645235H94.6172L98.3568 15.9194H98.6728L107.469 0.645235H116.58L112.103 27.612H104.94L107.521 12.0218H107.311L98.7781 27.4013H94.4592L91.0357 11.9165H90.825L88.1916 27.612H81.0285L85.5054 0.645235ZM115.573 27.612L120.05 0.645235H127.371L123.895 21.713H134.797L133.797 27.612H115.573ZM136.756 27.612L141.233 0.645235H160.668L159.667 6.54421H147.553L146.816 11.1791H157.929L156.928 17.0781H145.815L145.078 21.713H157.139L156.138 27.612H136.756ZM167.209 27.612L171.686 0.645235H190.647L189.646 6.54421H178.006L177.269 11.1791H187.75L186.749 17.0781H176.268L174.53 27.612H167.209ZM200.66 0.645235L196.184 27.612H188.863L193.339 0.645235H200.66ZM199.653 27.612L204.13 0.645235H215.77C217.771 0.645235 219.461 1.00953 220.839 1.73813C222.218 2.46672 223.21 3.51572 223.815 4.88512C224.421 6.25453 224.566 7.89606 224.25 9.80971C223.934 11.7409 223.236 13.3693 222.156 14.6948C221.085 16.0115 219.72 17.0123 218.061 17.697C216.411 18.3729 214.559 18.7108 212.505 18.7108H205.552L206.5 13.0225H211.978C212.838 13.0225 213.593 12.9172 214.243 12.7065C214.892 12.4871 215.419 12.1447 215.823 11.6795C216.226 11.2055 216.49 10.5822 216.613 9.80971C216.736 9.03723 216.674 8.40958 216.428 7.92678C216.183 7.4352 215.774 7.07529 215.204 6.84706C214.633 6.61004 213.927 6.49154 213.084 6.49154H210.503L206.974 27.612H199.653ZM217.508 15.2347L222.196 27.612H214.243L209.713 15.2347H217.508ZM242.375 9.07234C242.454 8.20329 242.243 7.52298 241.743 7.0314C241.242 6.53104 240.4 6.28086 239.214 6.28086C238.46 6.28086 237.828 6.36864 237.318 6.54421C236.818 6.71977 236.427 6.96117 236.147 7.26841C235.874 7.57565 235.703 7.93117 235.633 8.33497C235.554 8.65098 235.558 8.94067 235.646 9.20401C235.743 9.45858 235.923 9.6912 236.186 9.90188C236.458 10.1126 236.814 10.3013 237.253 10.4681C237.7 10.6349 238.231 10.7841 238.846 10.9158L240.953 11.3898C242.392 11.7058 243.599 12.1228 244.574 12.6407C245.557 13.1498 246.329 13.7555 246.891 14.4578C247.453 15.16 247.822 15.9457 247.997 16.8147C248.181 17.6838 248.186 18.6318 248.01 19.6589C247.712 21.4321 247.023 22.9332 245.943 24.1621C244.863 25.3911 243.454 26.326 241.716 26.9668C239.978 27.6076 237.968 27.928 235.686 27.928C233.351 27.928 231.367 27.5812 229.734 26.8878C228.11 26.1855 226.934 25.1146 226.205 23.6749C225.485 22.2265 225.31 20.3787 225.678 18.1315H232.631C232.525 18.9566 232.613 19.6501 232.894 20.2119C233.175 20.7737 233.627 21.1995 234.25 21.4892C234.874 21.7788 235.651 21.9237 236.581 21.9237C237.371 21.9237 238.047 21.8271 238.609 21.634C239.171 21.4409 239.614 21.1731 239.939 20.8308C240.263 20.4884 240.461 20.0978 240.531 19.6589C240.601 19.2551 240.531 18.8952 240.321 18.5792C240.11 18.2631 239.728 17.9779 239.175 17.7233C238.622 17.4687 237.863 17.2361 236.897 17.0254L234.316 16.4461C232.025 15.9194 230.296 15.0503 229.128 13.8389C227.961 12.6275 227.548 10.9684 227.891 8.86166C228.171 7.14113 228.878 5.64005 230.011 4.35843C231.152 3.06803 232.6 2.06731 234.356 1.35627C236.12 0.636457 238.073 0.276549 240.215 0.276549C242.392 0.276549 244.214 0.640846 245.68 1.36944C247.154 2.09803 248.212 3.1207 248.853 4.43743C249.503 5.75417 249.678 7.29914 249.38 9.07234H242.375ZM252.217 6.54421L253.218 0.645235H276.656L275.655 6.54421H267.544L264.068 27.612H256.852L260.328 6.54421H252.217Z" fill="#FFEACE"/>
<path d="M0.118454 34.9857H274.865V37.5138H0.118454V34.9857Z" fill="#FFEACE"/>
</svg>
